<svg width="44" height="32" viewBox="0 0 44 32" fill="none" xmlns="http://www.w3.org/2000/svg">
<g clip-path="url(#clip0)">
<path d="M12.7442 5.46672C12.9039 5.46199 13.0515 5.38105 13.1394 5.25023C13.575 4.6024 14.0825 3.98869 14.6612 3.42035C19.3048 -1.14012 26.8336 -1.14012 31.4772 3.42035C31.8909 3.82659 32.2683 4.25621 32.6093 4.70515C32.6794 4.7976 32.7813 4.86216 32.8957 4.88785C35.3361 5.43531 37.4772 6.98571 38.7077 9.19698C38.9129 9.56584 38.509 9.94513 38.1089 9.79583C36.7743 9.29788 35.3267 9.02525 33.8142 9.02525C32.4588 9.02525 31.1554 9.24422 29.9387 9.64809C29.8835 9.66645 29.8241 9.67856 29.7684 9.66139C29.6452 9.62339 29.5476 9.51636 29.535 9.37597C29.5149 9.1553 29.0582 7.98726 28.1774 7.06463C27.5428 6.39973 26.908 5.97442 26.603 5.78868C23.9347 4.24193 20.441 4.59419 18.1487 6.84543C17.8296 7.15884 17.5487 7.49393 17.3056 7.84557C17.1003 8.16 16.9135 8.47207 16.7866 8.7369C16.3776 9.59045 16.3625 10.3429 16.3576 10.5904C16.3568 10.6272 16.3563 10.6529 16.3548 10.666C16.329 10.8861 16.0957 11.0184 15.8887 10.9305C15.8546 10.9159 15.8162 10.8905 15.767 10.8578C15.5634 10.7227 15.1743 10.4646 14.1319 10.3481C14.0257 10.3459 13.9157 10.3404 13.8016 10.3313C9.92669 10.0206 6.25721 12.4639 5.21513 16.2834C4.04159 20.5846 6.6407 25.0058 11.0204 26.1583C12.0732 26.4354 13.1272 26.4982 14.1387 26.3766C14.4821 26.3354 14.8212 26.2729 15.1541 26.1899C15.4541 26.1152 15.5742 25.771 15.4026 25.5181L14.635 24.3873C14.4212 24.0723 14.6645 23.6523 15.049 23.6727L22.5678 24.0711C22.8794 24.0876 23.0874 24.394 22.9834 24.6835L20.4762 31.6688C20.348 32.026 19.8605 32.0861 19.6467 31.7711L18.7674 30.4757C18.6129 30.2478 18.2919 30.2057 18.0446 30.3321C17.958 30.3763 17.8678 30.416 17.7742 30.4506C16.803 30.8103 15.784 31.0589 14.7373 31.1847C13.1087 31.3802 11.4178 31.2775 9.74389 30.8371C2.73304 28.9922 -1.4275 21.915 0.451053 15.0297C1.98902 9.39271 7.09548 5.63428 12.7442 5.46672Z" fill="#0172CB"/>
<path d="M25.4798 15.3688L26.279 14.4516C29.8988 10.297 36.2575 9.8217 40.4817 13.3901C44.7059 16.9585 45.1958 23.2192 41.5761 27.3738C38.3348 31.094 32.9021 31.8623 28.7668 29.4243L27.0207 28.3948C26.8003 28.2649 26.7285 27.9838 26.8602 27.7668L28.9476 24.3313C29.0793 24.1145 29.3647 24.044 29.5851 24.174L31.3311 25.2034C33.4121 26.4303 36.1503 26.039 37.7808 24.1677C39.6043 22.0747 39.3575 18.9206 37.2294 17.1229C35.1014 15.3252 31.8979 15.5646 30.0743 17.6577L29.7002 18.0869L31.2233 19.0678C31.534 19.268 31.4884 19.7473 31.1458 19.8835L24.445 22.547C24.1673 22.6573 23.8652 22.4627 23.8411 22.158L23.2601 14.8048C23.2303 14.4287 23.6308 14.178 23.9415 14.3781L25.4798 15.3688Z" fill="#0172CB"/>
</g>
<defs>
<clipPath id="clip0">
<rect width="44" height="32" fill="white"/>
</clipPath>
</defs>
</svg>
